<?xml version="1.0"?>
<svg xmlns="http://www.w3.org/2000/svg" viewBox="0 0 64 64" width="512" height="512"><g id="Map-3" data-name="Map"><circle cx="12" cy="11" r="3"/><path d="M19,11A7,7,0,0,0,5,11c0,4.512,5.026,11.7,7,14.354C13.973,22.7,19,15.507,19,11ZM7,11a5,5,0,1,1,5,5A5.006,5.006,0,0,1,7,11Z"/><path d="M29,44H24v6h6V45A1,1,0,0,0,29,44Z"/><path d="M33,52H24v6h2.184a2.982,2.982,0,0,1,5.632,0H34V53A1,1,0,0,0,33,52Z"/><circle cx="29" cy="59" r="1"/><circle cx="9" cy="59" r="1"/><path d="M4,58H6.184a2.982,2.982,0,0,1,5.632,0H22V44H4Z"/><path d="M55,2H39a7.008,7.008,0,0,0-7,7V19a3,3,0,0,1-3,3H19v2H29a5.006,5.006,0,0,0,5-5V9a5.006,5.006,0,0,1,5-5H55a5.006,5.006,0,0,1,5,5V53a5.006,5.006,0,0,1-5,5H40v2H55a7.008,7.008,0,0,0,7-7V9A7.008,7.008,0,0,0,55,2Z"/><path d="M42,15a3,3,0,0,1,3-3h4a3,3,0,0,1,3,3V47a3,3,0,0,1-3,3H40v2h9a5.006,5.006,0,0,0,5-5V15a5.006,5.006,0,0,0-5-5H45a5.006,5.006,0,0,0-5,5v8a7.008,7.008,0,0,1-7,7H19v2H33a9.01,9.01,0,0,0,9-9Z"/></g></svg>
