<svg xmlns="http://www.w3.org/2000/svg" width="300" height="300" viewBox="0 0 300 300">
  <defs>
    <style>
      .cls-1 {
        fill: #f2cf1d;
      }

      .cls-1, .cls-2 {
        fill-rule: evenodd;
      }

      .cls-2 {
        fill: #262626;
      }
    </style>
  </defs>
  <path id="Color_Fill_2" data-name="Color Fill 2" class="cls-1" d="M112,97h77V206H112V97Z"/>
  <path id="Color_Fill_1" data-name="Color Fill 1" class="cls-2" d="M89,50h24V73h26V98h-1c-2.346-2.108-19.99-1.086-25-1V206h26v24H104c-2.22-.718-4.212-2.384-7-3l-4-5H92l-2-6H89V50Zm73,23c21.22-.253,42.425-2.8,49,12,2.728,6.143,1,22.633,1,31v72c0,11.425,1.74,26.95-3,34l-3,2-2,3c-4.491,3.012-10.349,3.089-18,3v23c-5.776,2.142-16.507,1.051-24,1V206h26V97c-8-.1-19.763-1.321-26,1V73ZM146,223a21.057,21.057,0,0,1,0-10,39.688,39.688,0,0,1,8-1c1.547,2.821,2.772,3.4,3,8-3.875,3.3-1.033,4.042-9,4C146.861,222.861,148,223.6,146,223Z"/>
</svg>
